<?xml version="1.0" encoding="UTF-8" standalone="no"?>
<svg
   xmlns:dc="http://purl.org/dc/elements/1.1/"
   xmlns:cc="http://creativecommons.org/ns#"
   xmlns:rdf="http://www.w3.org/1999/02/22-rdf-syntax-ns#"
   xmlns:svg="http://www.w3.org/2000/svg"
   xmlns="http://www.w3.org/2000/svg"
   xmlns:xlink="http://www.w3.org/1999/xlink"
   version="1.1"
   id="svg84"
   width="163.84"
   height="163.84"
   viewBox="0 0 163.84 163.84">
  <metadata
     id="metadata90">
    <rdf:RDF>
      <cc:Work
         rdf:about="">
        <dc:format>image/svg+xml</dc:format>
        <dc:type
           rdf:resource="https://purl.org/dc/dcmitype/StillImage" />
        <dc:title></dc:title>
      </cc:Work>
    </rdf:RDF>
  </metadata>
  <defs
     id="defs88">
    <linearGradient
       id="linearGradient836">
      <stop
         style="stop-color:#f85f1d;stop-opacity:1"
         offset="0"
         id="stop832" />
      <stop
         style="stop-color:#d93835;stop-opacity:1"
         offset="1"
         id="stop834" />
    </linearGradient>
    <linearGradient
       xlink:href="#linearGradient836"
       id="linearGradient838"
       x1="70.874397"
       y1="8.7230005"
       x2="69.511421"
       y2="155.37848"
       gradientUnits="userSpaceOnUse" />
  </defs>
  <g
     id="g92"
     style="fill-opacity:1;fill:url(#linearGradient838)">
    <path
       style="fill:url(#linearGradient838);stroke-width:0.43732;fill-opacity:1.0"
       d="m 16.556603,155.07004 -4.154542,-0.23783 v -13.33827 -13.33827 l 8.746405,-0.21866 8.746405,-0.21866 0.111899,-35.835819 c 0.06155,-19.709699 -0.03962,-35.987333 -0.224792,-36.172516 -0.185183,-0.185183 -3.974623,0.22839 -8.42099,0.91905 -4.446362,0.69066 -8.21382,1.126368 -8.372128,0.968237 -0.158302,-0.158131 -0.355096,-5.305762 -0.437314,-11.439179 l -0.149485,-11.151666 8.090424,-1.3284 c 4.449734,-0.730621 8.425132,-1.458708 8.834223,-1.617971 0.66781,-0.259987 0.757168,-1.412758 0.874641,-11.283841 C 30.331711,9.8219833 30.335948,9.7789373 31.364608,8.9466199 32.53618,7.9986708 66.868177,7.6229622 68.580465,8.5393504 c 1.372626,0.7346064 1.766529,2.9395436 1.766529,9.8883876 0,3.678064 0.176699,6.7966 0.392666,6.930074 0.215961,0.133479 8.432115,-1.041088 18.25812,-2.610141 35.78613,-5.714456 45.75915,-7.223988 46.02256,-6.966049 0.60908,0.596396 3.82593,22.092974 3.36132,22.461931 -0.25778,0.20471 -1.64945,0.513848 -3.09261,0.68697 -3.50373,0.420313 -3.71722,0.659129 -3.71722,4.158067 v 2.945859 l 7.01893,7.692843 7.01894,7.692845 2.27412,0.131428 2.27412,0.131427 v 8.746405 8.746405 h -23.61529 -23.6153 v -8.746405 -8.746405 l 2.48,-0.21866 2.47999,-0.21866 8.55389,-7.871765 8.55389,-7.871764 0.008,-2.295931 c 0.008,-2.207317 -0.0373,-2.295932 -1.17742,-2.295932 -1.21822,0 -51.948146,7.758586 -52.934846,8.095804 -0.436086,0.149039 -0.526026,8.262147 -0.43732,39.449946 l 0.11192,39.26232 8.965065,0.21866 8.965065,0.21866 v 13.55693 13.55693 l -33.892319,0.0191 c -18.640776,0.0109 -35.761864,-0.0879 -38.046862,-0.21866 z m 35.42294,-27.53081 c 0,-0.50314 -13.763718,-11.40987 -14.398638,-11.40987 -0.518972,0 -0.689741,11.00506 -0.178702,11.51611 0.449906,0.4499 14.57734,0.34694 14.57734,-0.10619 z m 11.272101,-7.36465 -0.120434,-6.8878 -8.676645,-0.11876 c -6.760349,-0.0925 -8.636645,0.001 -8.495536,0.42461 0.23928,0.71784 16.135583,13.38718 16.855294,13.43366 0.434792,0.0281 0.531204,-1.48247 0.437321,-6.85177 z M 55.459708,106.18033 C 55.438323,105.79872 38.622511,92.563326 37.71818,92.216302 c -0.645904,-0.247855 -0.9531,13.363348 -0.315977,14.000468 0.404447,0.40445 18.080236,0.36878 18.057505,-0.0364 z m 7.792954,-9.983026 -0.121452,-6.525816 -8.637075,-0.118575 c -4.750391,-0.06522 -8.626484,0.03319 -8.613534,0.21866 0.04238,0.60711 16.804262,13.553117 17.153401,13.248397 0.187063,-0.16327 0.28546,-3.23347 0.21866,-6.822666 z M 55.370429,82.351333 C 55.175991,81.768018 37.983751,68.035965 37.438645,68.028579 c -0.405261,-0.0055 -0.440705,14.168639 -0.03643,14.572897 0.581632,0.581636 18.163895,0.336863 17.968225,-0.250143 z M 63.252662,72.14469 63.13121,65.618874 54.454565,65.500168 c -5.447951,-0.07454 -8.621234,0.03857 -8.527744,0.303999 0.282448,0.801823 16.767834,13.511919 17.107181,13.189491 0.187063,-0.177735 0.28546,-3.259771 0.21866,-6.848968 z M 136.37057,61.136342 c -0.007,-0.180395 -1.94386,-2.38783 -4.30529,-4.905413 l -4.29352,-4.577422 -4.87843,4.558551 c -2.68314,2.507201 -4.87843,4.714637 -4.87843,4.905413 0,0.190773 4.13268,0.346861 9.18373,0.346861 5.05104,0 9.17842,-0.147596 9.17194,-0.32799 z M 55.478105,58.434997 c 0,-0.859483 -6.771641,-5.700194 -7.985804,-5.708656 -1.435014,-0.01 -9.516692,1.257917 -10.02659,1.573049 -0.425548,0.263005 -0.478923,3.834062 -0.06351,4.249473 0.458338,0.458337 18.075901,0.347358 18.075901,-0.113866 z m 7.784257,-5.60774 c -0.144564,-2.771736 -0.02493,-2.705687 -3.739044,-2.064388 -1.912038,0.330147 -1.808027,0.658727 0.87464,2.763073 2.946074,2.310967 3.020436,2.29283 2.864404,-0.698685 z M 43.335638,30.036479 c 5.359928,-0.884205 5.67203,-1.046207 4.228134,-2.194648 -8.120648,-6.459011 -9.960287,-7.83266 -10.18664,-7.606303 -0.363226,0.363221 -0.339925,9.959846 0.02506,10.324839 0.384281,0.384285 0.47879,0.375937 5.933434,-0.523888 z M 62.240834,26.922015 63.37534,26.490677 63.253274,20.690202 63.13121,14.889726 52.70574,14.772388 c -6.722259,-0.07566 -10.372738,0.03604 -10.277026,0.314503 0.08164,0.237513 3.493944,3.083021 7.582888,6.323345 7.953858,6.303115 8.957776,6.755584 12.229232,5.511779 z"
       id="path178" />
  </g>
</svg>
